<?xml version="1.0" encoding="iso-8859-1"?>
<!-- Uploaded to: SVG Repo, www.svgrepo.com, Generator: SVG Repo Mixer Tools -->
<svg version="1.1" id="Capa_1" xmlns="http://www.w3.org/2000/svg" xmlns:xlink="http://www.w3.org/1999/xlink" 
	 viewBox="0 0 105.544 105.544" xml:space="preserve">
<g>
	<rect x="12.272" y="3" style="fill:#2AB9F7;" width="81" height="5"/>
	<rect x="12.272" y="80" style="fill:#2AB9F7;" width="81" height="4"/>
	<polygon style="fill:#FF422C;" points="63.953,53.026 53.254,18.21 38.134,50.583 30.843,32.156 16.81,60 12.272,60 12.272,63 
		18.658,63 30.512,39.476 37.905,58.161 52.676,26.54 63.099,60.463 81.974,28 93.272,28 93.272,25 80.248,25 	"/>
	<path d="M96.272,87V0h-87v87h41v9.597c-1.873,0.577-3.247,2.303-3.247,4.363c0,2.528,2.058,4.585,4.586,4.585
		s4.585-2.057,4.585-4.585c0-1.941-1.217-3.594-2.924-4.262V87H96.272z M51.611,102.544c-0.874,0-1.586-0.711-1.586-1.585
		s0.712-1.585,1.586-1.585s1.585,0.711,1.585,1.585S52.485,102.544,51.611,102.544z M93.272,3v5h-81V3H93.272z M93.272,11v14v3v49
		h-81V63v-3V11H93.272z M12.272,80h81v4h-81V80z"/>
</g>
</svg>