<?xml version="1.0" standalone="no"?>
<!DOCTYPE svg PUBLIC "-//W3C//DTD SVG 20010904//EN"
 "http://www.w3.org/TR/2001/REC-SVG-20010904/DTD/svg10.dtd">
<svg version="1.0" xmlns="http://www.w3.org/2000/svg"
 width="256.000000pt" height="256.000000pt" viewBox="0 0 256.000000 256.000000"
 preserveAspectRatio="xMidYMid meet">

<g transform="translate(0.000000,256.000000) scale(0.100000,-0.100000)"
fill="#000000" stroke="none">
<path d="M625 2409 c-220 -9 -293 -36 -377 -139 -65 -82 -84 -182 -99 -540
-12 -285 -7 -455 18 -584 11 -56 18 -176 22 -391 7 -354 7 -354 99 -456 59
-65 116 -93 223 -110 101 -16 1497 -6 1584 11 122 24 214 91 256 185 29 65 36
147 25 295 -5 74 -10 439 -10 810 -1 670 -1 675 -23 722 -30 66 -96 133 -162
165 l-56 28 -250 2 c-137 0 -439 3 -670 5 -231 1 -492 0 -580 -3z m822 -474
c197 -8 385 -17 417 -20 103 -11 177 -65 193 -143 21 -97 -9 -863 -38 -974
-12 -45 -60 -95 -116 -120 -69 -30 -162 -36 -408 -27 -126 5 -354 13 -505 19
-374 13 -440 32 -494 142 -42 86 -47 171 -38 598 7 369 9 387 30 427 29 55 80
93 139 103 79 13 438 11 820 -5z"/>
<path d="M775 1841 c-110 -8 -142 -23 -174 -80 -20 -37 -25 -63 -30 -165 -11
-219 -7 -454 7 -468 10 -10 54 -12 185 -9 218 4 236 -1 310 -79 31 -34 76 -70
100 -80 89 -41 192 -17 260 60 71 82 186 113 405 108 105 -2 135 0 141 11 18
29 34 247 29 395 -6 161 -16 203 -59 243 -43 39 -77 45 -304 49 -121 3 -306 9
-412 14 -203 11 -312 11 -458 1z m760 -192 c396 -13 393 -13 410 -116 l7 -43
-44 19 c-37 16 -85 20 -328 27 -157 5 -420 9 -585 9 -266 0 -304 -2 -334 -17
-19 -10 -35 -18 -36 -18 -1 0 1 17 5 38 11 57 30 90 59 101 36 13 453 13 846
0z m145 -177 c244 -9 260 -16 260 -120 l0 -49 -57 28 -58 28 -370 12 c-203 6
-451 10 -550 7 -157 -3 -186 -7 -227 -25 l-48 -22 0 30 c0 50 26 98 62 115 28
13 86 14 413 9 209 -4 468 -10 575 -13z"/>
</g>
</svg>
